<?xml version="1.0" encoding="UTF-8" standalone="no"?>
<svg
   xmlns:dc="http://purl.org/dc/elements/1.1/"
   xmlns:cc="http://creativecommons.org/ns#"
   xmlns:rdf="http://www.w3.org/1999/02/22-rdf-syntax-ns#"
   xmlns:svg="http://www.w3.org/2000/svg"
   xmlns="http://www.w3.org/2000/svg"
   xmlns:sodipodi="http://sodipodi.sourceforge.net/DTD/sodipodi-0.dtd"
   xmlns:inkscape="http://www.inkscape.org/namespaces/inkscape"
   width="100.0px"
   height="100.0px"
   viewBox="0 0 100.0 100.0"
   version="1.1"
   id="SVGRoot"
   sodipodi:docname="app-icon.svg"
   inkscape:version="1.0.1 (c497b03c, 2020-09-10)"
   inkscape:export-filename="/Users/egon/Documents/app-icon-180.png"
   inkscape:export-xdpi="172.8"
   inkscape:export-ydpi="172.8">
  <defs
     id="defs3187" />
  <sodipodi:namedview
     id="base"
     pagecolor="#ffffff"
     bordercolor="#666666"
     borderopacity="1.0"
     inkscape:pageopacity="0.0"
     inkscape:pageshadow="2"
     inkscape:zoom="8.03"
     inkscape:cx="50"
     inkscape:cy="50"
     inkscape:document-units="px"
     inkscape:current-layer="layer2"
     inkscape:document-rotation="0"
     showgrid="true"
     inkscape:window-width="1920"
     inkscape:window-height="1083"
     inkscape:window-x="0"
     inkscape:window-y="23"
     inkscape:window-maximized="1">
    <inkscape:grid
       type="xygrid"
       id="grid3196" />
  </sodipodi:namedview>
  <metadata
     id="metadata3190">
    <rdf:RDF>
      <cc:Work
         rdf:about="">
        <dc:format>image/svg+xml</dc:format>
        <dc:type
           rdf:resource="http://purl.org/dc/dcmitype/StillImage" />
        <dc:title></dc:title>
      </cc:Work>
    </rdf:RDF>
  </metadata>
  <g
     inkscape:groupmode="layer"
     id="layer2"
     inkscape:label="background">
    <rect
       style="fill:#290075;fill-opacity:1;stroke:none"
       id="rect3804"
       width="100"
       height="100"
       x="0"
       y="0" />
  </g>
  <g
     inkscape:label="Layer 1"
     inkscape:groupmode="layer"
     id="layer1">
    <path
       d="M 8.2351687,56.317637 H 28.14019 c 2.021992,0 3.235113,-0.875572 3.684454,-2.626627 l 6.739852,-30.162317 11.817237,69.123748 c 0.539247,3.151916 5.526729,3.108165 6.155789,0 L 67.950324,40.33903 70.646283,53.340728 c 0.404435,2.013744 1.57265,2.976909 3.684455,2.976909 H 91.764517 C 93.561701,56.317637 95,54.960527 95,53.253224 95,51.50217 93.606791,50.14506 91.764517,50.14506 H 75.858482 L 70.691281,27.862622 c -0.674059,-3.02066 -5.302104,-3.02066 -6.065883,0.131345 L 53.347315,77.067851 41.530078,7.3312385 c -0.494248,-3.0644124 -5.077388,-3.1519158 -5.796261,0 L 26.208104,50.14506 H 8.2351687 C 6.3928951,50.14506 5,51.545922 5,53.253224 c 0,1.707303 1.3928951,3.064413 3.2351687,3.064413 z"
       id="path390"
       style="fill:#ff5afb;fill-opacity:1;stroke-width:0.908307" />
  </g>
</svg>
